<?xml version="1.0" encoding="UTF-8" standalone="no"?>
<!-- Created with Inkscape (http://www.inkscape.org/) -->

<svg
   xmlns:dc="http://purl.org/dc/elements/1.1/"
   xmlns:cc="http://creativecommons.org/ns#"
   xmlns:rdf="http://www.w3.org/1999/02/22-rdf-syntax-ns#"
   xmlns:svg="http://www.w3.org/2000/svg"
   xmlns="http://www.w3.org/2000/svg"
   xmlns:sodipodi="http://sodipodi.sourceforge.net/DTD/sodipodi-0.dtd"
   xmlns:inkscape="http://www.inkscape.org/namespaces/inkscape"
   width="100"
   height="100"
   id="svg2"
   version="1.1"
   inkscape:version="0.48.2 r9819"
   sodipodi:docname="_forum.svg">
  <defs
     id="defs4" />
  <sodipodi:namedview
     id="base"
     pagecolor="#ffffff"
     bordercolor="#666666"
     borderopacity="1.0"
     inkscape:pageopacity="0.0"
     inkscape:pageshadow="2"
     inkscape:zoom="5.6568542"
     inkscape:cx="19.514645"
     inkscape:cy="44.097142"
     inkscape:document-units="px"
     inkscape:current-layer="layer1"
     showgrid="false"
     inkscape:window-width="1833"
     inkscape:window-height="983"
     inkscape:window-x="1966"
     inkscape:window-y="17"
     inkscape:window-maximized="0" />
  <metadata
     id="metadata7">
    <rdf:RDF>
      <cc:Work
         rdf:about="">
        <dc:format>image/svg+xml</dc:format>
        <dc:type
           rdf:resource="http://purl.org/dc/dcmitype/StillImage" />
        <dc:title></dc:title>
      </cc:Work>
    </rdf:RDF>
  </metadata>
  <g
     inkscape:label="Layer 1"
     inkscape:groupmode="layer"
     id="layer1"
     transform="translate(0,-952.3622)">
    <path
       sodipodi:type="arc"
       style="fill:#000000;fill-opacity:1;stroke:none"
       id="path4048"
       sodipodi:cx="49.232311"
       sodipodi:cy="20.27371"
       sodipodi:rx="13.346641"
       sodipodi:ry="11.667262"
       d="m 62.578952,20.27371 a 13.346641,11.667262 0 1 1 -26.693281,0 13.346641,11.667262 0 1 1 26.693281,0 z"
       transform="matrix(0.51783549,0,0,0.73376878,-7.4929128,974.74737)" />
    <path
       style="fill:#000000;fill-opacity:1;stroke:#000000;stroke-width:0.6164183px;stroke-linecap:butt;stroke-linejoin:miter;stroke-opacity:1"
       d="m 7.6113922,1001.0384 21.3291108,-0.1298 9.611831,15.6953 -10.527244,-9.5987 -2.746237,22.8295 0.823871,15.825 -6.682511,-12.8416 -6.224805,11.6742 1.46466,-13.8793 -5.3093918,-22.9593 -7.597924,11.0256 z"
       id="path4052"
       inkscape:connector-curvature="0" />
    <path
       transform="matrix(0.57192469,0,0,0.76556349,47.248653,975.29113)"
       sodipodi:type="arc"
       style="fill:#000000;fill-opacity:1;stroke:none"
       id="path4048-8"
       sodipodi:cx="49.232311"
       sodipodi:cy="20.27371"
       sodipodi:rx="13.346641"
       sodipodi:ry="11.667262"
       d="m 62.578952,20.27371 a 13.346641,11.667262 0 1 1 -26.693281,0 13.346641,11.667262 0 1 1 26.693281,0 z" />
    <path
       style="fill:#000000;fill-opacity:1;stroke:#000000;stroke-width:0.66169834px;stroke-linecap:butt;stroke-linejoin:miter;stroke-opacity:1"
       d="m 63.930641,1002.7213 23.556989,-0.1353 10.61581,16.3753 -11.62684,-10.0146 -3.033088,23.8187 0.909926,16.5107 -7.380516,-13.398 -6.875001,12.18 1.617647,-14.4807 -5.863971,-23.9541 -8.391545,11.5034 z"
       id="path4052-9"
       inkscape:connector-curvature="0" />
    <path
       transform="matrix(0.52772767,0,0,0.72968258,20.440024,950.84857)"
       sodipodi:type="arc"
       style="fill:#ff0000;fill-opacity:1;stroke:#000000;stroke-opacity:1"
       id="path4048-2"
       sodipodi:cx="49.232311"
       sodipodi:cy="20.27371"
       sodipodi:rx="13.346641"
       sodipodi:ry="11.667262"
       d="m 62.578952,20.27371 a 13.346641,11.667262 0 1 1 -26.693281,0 13.346641,11.667262 0 1 1 26.693281,0 z" />
    <path
       style="fill:#ff0000;fill-opacity:1;stroke:#000000;stroke-width:0.62054306000000004px;stroke-linecap:butt;stroke-linejoin:miter;stroke-opacity:1"
       d="m 35.832867,976.9931 21.736559,-0.12895 9.795443,15.60782 -10.728343,-9.54523 -2.798699,22.70236 0.83961,15.7369 -6.810167,-12.7701 -6.343716,11.6092 1.492639,-13.802 -5.410817,-22.8314 -7.743067,10.96417 z"
       id="path4052-7"
       inkscape:connector-curvature="0" />
  </g>
</svg>
